<svg xmlns="http://www.w3.org/2000/svg" viewBox="0 0 320 320" role="img" aria-labelledby="title desc">
  <title id="title">Max AI mascotte</title>
  <desc id="desc">Vriendelijke digitale webdesigner van Max Webstudio.</desc>
  <defs>
    <linearGradient id="bg" x1="56" x2="266" y1="34" y2="292" gradientUnits="userSpaceOnUse">
      <stop stop-color="#f8fbff"/>
      <stop offset="0.52" stop-color="#eaf4ff"/>
      <stop offset="1" stop-color="#d9edff"/>
    </linearGradient>
    <linearGradient id="shirt" x1="98" x2="236" y1="178" y2="292" gradientUnits="userSpaceOnUse">
      <stop stop-color="#155eef"/>
      <stop offset="1" stop-color="#0b3fb8"/>
    </linearGradient>
    <linearGradient id="skin" x1="104" x2="202" y1="78" y2="176" gradientUnits="userSpaceOnUse">
      <stop stop-color="#ffd7b8"/>
      <stop offset="1" stop-color="#f0a978"/>
    </linearGradient>
    <filter id="shadow" x="-20%" y="-20%" width="140%" height="150%">
      <feDropShadow dx="0" dy="18" stdDeviation="16" flood-color="#06121f" flood-opacity="0.18"/>
    </filter>
  </defs>
  <rect width="320" height="320" rx="72" fill="url(#bg)"/>
  <circle cx="253" cy="67" r="28" fill="#19c2ff" opacity="0.24"/>
  <circle cx="62" cy="244" r="38" fill="#2bd982" opacity="0.16"/>
  <g filter="url(#shadow)">
    <path d="M92 292c7-69 35-103 76-103s70 34 78 103H92Z" fill="url(#shirt)"/>
    <path d="M116 222c11 14 27 22 52 22s41-8 52-22c-10-22-28-33-52-33s-42 11-52 33Z" fill="#ffffff" opacity="0.94"/>
    <path d="M142 197h52v35c-7 8-16 12-26 12s-19-4-26-12v-35Z" fill="#f2b283"/>
    <path d="M142 202c8 7 17 10 26 10s18-3 26-10v-18h-52v18Z" fill="#d98b62" opacity="0.38"/>
    <path d="M98 123c0-42 27-73 70-73s70 31 70 73v24c0 42-28 72-70 72s-70-30-70-72v-24Z" fill="url(#skin)"/>
    <path d="M97 126c-13-41 12-84 60-90 38-5 71 14 82 48 7 22 2 45-3 58-8-20-19-34-34-42-18 16-49 25-91 24-4 7-8 14-14 2Z" fill="#06121f"/>
    <path d="M109 129c32-2 62-12 91-30 15 8 28 23 38 45v-18c0-43-27-76-70-76s-70 33-70 76v19c4-5 8-11 11-16Z" fill="#0b223f"/>
    <circle cx="122" cy="143" r="7" fill="#f0a978"/>
    <circle cx="214" cy="143" r="7" fill="#f0a978"/>
    <circle cx="144" cy="137" r="5" fill="#06121f"/>
    <circle cx="192" cy="137" r="5" fill="#06121f"/>
    <path d="M151 168c10 9 24 9 34 0" fill="none" stroke="#7b3d2d" stroke-width="7" stroke-linecap="round"/>
    <path d="M118 126c9-7 23-7 34-1" fill="none" stroke="#06121f" stroke-width="7" stroke-linecap="round"/>
    <path d="M184 125c11-6 25-6 34 1" fill="none" stroke="#06121f" stroke-width="7" stroke-linecap="round"/>
    <rect x="122" y="238" width="92" height="54" rx="14" fill="#06121f"/>
    <path d="M146 271v-23h7l15 14 15-14h7v23h-10v-10l-9 8h-6l-9-8v10h-10Z" fill="#ffffff"/>
    <path d="M196 245h16v16" fill="none" stroke="#19c2ff" stroke-width="7" stroke-linecap="round"/>
  </g>
</svg>
